<svg width="52" height="52" viewBox="0 0 52 52" fill="none" xmlns="http://www.w3.org/2000/svg">
<rect width="52" height="52" rx="26" fill="#31AAB7"/>
<path d="M31.9998 35.2858H20.0003C18.1857 35.2858 16.7144 33.8144 16.7144 31.9998V20.0003C16.7144 18.1857 18.1857 16.7144 20.0003 16.7144H31.9998C33.8145 16.7144 35.2858 18.1857 35.2858 20.0003V31.9998C35.2858 33.7981 33.8145 35.2858 31.9998 35.2858ZM20.0003 17.1067C18.4146 17.1067 17.1067 18.3982 17.1067 20.0003V31.9998C17.1067 33.5856 18.3982 34.8934 20.0003 34.8934H31.9998C33.5856 34.8934 34.8934 33.6019 34.8934 31.9998V20.0003C34.8934 18.4146 33.6019 17.1067 31.9998 17.1067H20.0003Z" fill="#31AAB7" stroke="white" stroke-width="1.07843"/>
<path d="M21.9293 32.0156C21.8802 32.0156 21.8475 32.0156 21.8475 32.0156H19.755H19.4771C19.7059 31.9992 20.1964 31.6232 20.4252 31.4597C20.6541 31.2963 20.8176 31.1001 20.8993 30.8876L25.3297 20.3921C25.4441 20.1142 25.7057 19.9507 25.9836 19.9507C26.2779 19.9507 26.5231 20.1142 26.6539 20.3921L30.6591 29.7268C30.9371 30.6587 30.4793 31.2799 30.2668 31.4924C29.76 32.0319 28.9916 32.0156 28.9426 32.0156H25.7711L26.049 31.7867C25.5749 32.0156 24.9373 32.0156 24.9373 32.0156H24.8883H22.7957H22.7794L23.0082 31.7867C22.6649 32.0156 22.0764 32.0156 21.9293 32.0156ZM20.4906 31.754H21.8639C21.9456 31.754 23.5314 31.8684 24.3324 30.0375C24.3324 30.0375 24.3324 30.0374 24.3324 30.0211C24.6921 29.171 25.9999 26.3755 25.9999 26.3755C25.9999 26.3755 25.4277 28.1247 24.6103 30.0701C24.594 30.0865 24.594 30.1192 24.5777 30.1355C24.2016 31.0347 23.7766 31.5088 23.4496 31.754H24.9537C25.0354 31.754 26.7846 31.9175 27.5857 30.0375C27.5857 30.0375 27.2424 31.1164 26.4904 31.754H28.9589C28.9753 31.754 29.6619 31.7703 30.087 31.3126C30.2995 31.0837 30.6428 30.5769 30.4139 29.8249L30.3485 29.6778L26.425 20.5065C26.3432 20.3103 26.1471 20.2286 25.9999 20.2286C25.8528 20.2286 25.673 20.294 25.5912 20.5065L21.1609 31.002C21.0465 31.2636 20.8666 31.4924 20.5887 31.6886C20.556 31.705 20.5233 31.7377 20.4906 31.754Z" fill="#31AAB7" stroke="white" stroke-width="1.07843"/>
</svg>
