<svg width="107" height="37" viewBox="0 0 107 37" fill="none" xmlns="http://www.w3.org/2000/svg">
<path d="M29.3243 36H7.08897C3.72641 36 1 33.2271 1 29.8072V7.19278C1 3.77288 3.72641 1 7.08897 1H29.3243C32.6868 1 35.4132 3.77288 35.4132 7.19278V29.8072C35.4132 33.1963 32.6868 36 29.3243 36ZM7.08897 1.73943C4.15052 1.73943 1.72705 4.17341 1.72705 7.19278V29.8072C1.72705 32.7958 4.12022 35.2606 7.08897 35.2606H29.3243C32.2627 35.2606 34.6862 32.8266 34.6862 29.8072V7.19278C34.6862 4.20422 32.293 1.73943 29.3243 1.73943H7.08897Z" fill="#8486EC" stroke="#8486EC" stroke-width="1.07843"/>
<path d="M10.6631 29.8373C10.5723 29.8373 10.5117 29.8373 10.5117 29.8373H6.63413H6.11914C6.54325 29.8065 7.45204 29.0978 7.87615 28.7897C8.30026 28.4817 8.6032 28.1119 8.75466 27.7114L16.9642 7.93147C17.1762 7.40771 17.6609 7.09961 18.1759 7.09961C18.7212 7.09961 19.1756 7.40771 19.4179 7.93147L26.8398 25.5239C27.3548 27.2801 26.5066 28.4508 26.1127 28.8514C25.1736 29.8681 23.7498 29.8373 23.659 29.8373H17.7821L18.2971 29.4059C17.4186 29.8373 16.2371 29.8373 16.2371 29.8373H16.1462H12.2687H12.2384L12.6625 29.4059C12.0263 29.8373 10.9358 29.8373 10.6631 29.8373ZM7.99733 29.3443H10.542C10.6934 29.3443 13.6319 29.56 15.1163 26.1093C15.1163 26.1093 15.1163 26.1093 15.1163 26.0785C15.7827 24.4764 18.2062 19.2079 18.2062 19.2079C18.2062 19.2079 17.1459 22.5045 15.6312 26.1709C15.6009 26.2017 15.601 26.2633 15.5707 26.2941C14.8739 27.9887 14.0863 28.8822 13.4804 29.3443H16.2674C16.4189 29.3443 19.6603 29.6524 21.1446 26.1093C21.1446 26.1093 20.5085 28.1427 19.115 29.3443H23.6893C23.7196 29.3443 24.9919 29.3751 25.7795 28.5125C26.1733 28.0811 26.8095 27.126 26.3854 25.7088L26.2642 25.4315L18.9938 8.14714C18.8423 7.77742 18.4788 7.62338 18.2062 7.62338C17.9335 7.62338 17.6003 7.74661 17.4488 8.14714L9.23935 27.9271C9.0273 28.42 8.69407 28.8514 8.17908 29.2211C8.1185 29.2519 8.05792 29.3135 7.99733 29.3443Z" fill="#8486EC" stroke="#8486EC" stroke-width="1.07843"/>
<path d="M51.2964 28.1486C51.2964 28.4605 51.4191 28.7101 51.6645 28.8972C51.9099 29.0844 52.1553 29.178 52.4006 29.2092H48.9961C49.3948 29.178 49.7936 29.022 50.1923 28.7101C50.591 28.4293 50.8671 28.0862 51.0511 27.7119L58.4122 10.6798C58.6883 10.0247 59.6084 10.0247 59.8844 10.6798L67.2762 27.6183C67.4603 28.0238 67.7363 28.3669 68.135 28.6789C68.5337 28.9908 68.9325 29.178 69.3619 29.2404H64.5158C64.7918 29.2092 65.0679 29.1156 65.2826 28.9284C65.528 28.7413 65.6506 28.4917 65.6506 28.1798C65.6506 27.9926 65.5893 27.8366 65.4973 27.6807L63.6263 23.4382H53.2594L51.3885 27.6807C51.3271 27.8366 51.2964 28.0238 51.2964 28.1486ZM53.3821 23.0639H63.4423L59.0563 13.1753C58.8109 12.5826 57.9828 12.5826 57.7068 13.1753L53.3821 23.0639Z" fill="#474747"/>
<path d="M73.107 27.2462C73.107 27.7765 73.2604 28.2444 73.5364 28.6811C73.8125 29.0866 74.2419 29.305 74.8246 29.305H69.8252C70.408 29.305 70.8374 29.0866 71.1134 28.6811C71.3895 28.2756 71.5121 27.7765 71.5121 27.2462V17.1704C71.5121 16.8585 71.4201 16.5465 71.2668 16.2658C71.1134 15.985 70.8373 15.8291 70.4693 15.8291L73.0763 15.4547V18.6366C73.5978 17.6072 74.3339 16.7649 75.2847 16.1722C76.2355 15.5795 77.309 15.2676 78.4438 15.2676C78.6279 15.2676 78.8426 15.2988 79.1186 15.33C79.3947 15.3612 79.64 15.4547 79.9161 15.5483C80.1921 15.6419 80.4068 15.7667 80.6215 15.9227C80.8362 16.0786 80.9589 16.2346 81.0509 16.453C81.1429 16.6089 81.1736 16.7649 81.1736 16.9521C81.1736 17.264 81.0816 17.5448 80.8669 17.7319C80.6522 17.9503 80.4068 18.0439 80.1001 18.0439C79.7934 18.0439 79.548 17.9191 79.364 17.7007C79.1493 17.4824 79.0573 17.2328 79.0573 16.9209C79.0573 16.6713 79.1493 16.4218 79.3026 16.2346C79.456 16.0162 79.6707 15.9227 79.9161 15.8603C79.3946 15.6107 78.8732 15.4859 78.3518 15.4859C77.7997 15.4859 77.2477 15.5795 76.7262 15.7667C76.1742 15.9539 75.6527 16.2034 75.1927 16.5153C74.7019 16.8273 74.2725 17.2328 73.9352 17.6695C73.5671 18.1063 73.2911 18.6054 73.107 19.1357L73.0763 19.1981V27.2462H73.107Z" fill="#474747"/>
<path d="M85.5294 27.2456C85.5294 27.7759 85.6827 28.2439 85.9588 28.6806C86.2348 29.0861 86.6642 29.3045 87.247 29.3045H82.2476C82.8303 29.3045 83.2597 29.0861 83.5358 28.6806C83.8118 28.275 83.9651 27.7759 83.9651 27.2456V17.1699C83.9651 16.8579 83.8732 16.546 83.7198 16.2652C83.5358 15.9845 83.2904 15.8285 82.9223 15.8285L85.5294 15.4542V27.2456ZM85.8054 12.8027C85.8054 13.1146 85.7134 13.3642 85.4987 13.5513C85.284 13.7697 85.0387 13.8633 84.7626 13.8633C84.4866 13.8633 84.2412 13.7697 84.0265 13.5513C83.8118 13.333 83.6891 13.0834 83.6891 12.8027C83.6891 12.5219 83.7811 12.2412 83.9958 12.0228C84.2105 11.8045 84.4559 11.6797 84.7319 11.6797C85.0386 11.6797 85.284 11.8045 85.4987 12.0228C85.6827 12.2412 85.8054 12.4907 85.8054 12.8027Z" fill="#474747"/>
<path d="M100.341 27.0274C99.8814 27.7761 99.2373 28.4 98.4092 28.8679C97.581 29.3358 96.5075 29.5542 95.2193 29.5542C94.2072 29.5542 93.287 29.367 92.4896 28.9615C91.6921 28.556 90.9867 28.0257 90.4039 27.3706C89.8212 26.7155 89.3918 25.9356 89.0851 25.031C88.7784 24.1576 88.625 23.2217 88.625 22.2235C88.625 21.2877 88.7477 20.3831 89.0237 19.5096C89.2997 18.6362 89.6985 17.8875 90.2199 17.2324C90.7413 16.5773 91.3854 16.047 92.1829 15.6415C92.9496 15.236 93.8391 15.0488 94.8513 15.0488C95.6487 15.0488 96.3848 15.1736 97.0903 15.4232C97.7957 15.6727 98.4091 16.047 98.9306 16.515C99.452 16.9829 99.8814 17.5756 100.188 18.2306C100.495 18.9169 100.648 19.6656 100.648 20.4766H90.4959C90.3733 21.0381 90.3426 21.6308 90.3426 22.1923C90.3426 23.0346 90.4653 23.8456 90.7106 24.6567C90.956 25.4677 91.2934 26.2164 91.7535 26.8715C92.2135 27.5265 92.7963 28.0568 93.5017 28.4624C94.2072 28.8679 95.0046 29.0551 95.8941 29.0551C96.8142 29.0551 97.673 28.8991 98.4092 28.556C99.1453 28.2128 99.7894 27.6825 100.28 26.965L100.341 27.0274ZM95.4647 15.5791C94.8206 15.5791 94.2072 15.7039 93.6858 15.9535C93.1337 16.203 92.6736 16.5462 92.2442 16.9829C91.8148 17.4196 91.4467 17.8875 91.1707 18.449C90.8947 19.0105 90.68 19.6032 90.5266 20.1959H98.8999C99.2066 20.1959 99.4826 20.1335 99.728 19.9775C99.9734 19.8216 100.096 19.572 100.096 19.1977C100.096 18.6674 99.9427 18.1683 99.636 17.7003C99.3293 17.2324 98.9306 16.8581 98.4705 16.5462C98.0104 16.2342 97.5197 15.9847 96.9676 15.7975C96.4462 15.6727 95.9247 15.5791 95.4647 15.5791Z" fill="#474747"/>
<path d="M105.313 27.2143C105.313 27.7446 105.436 28.2438 105.712 28.6493C105.988 29.0548 106.417 29.2732 107 29.2732H102C102.583 29.2732 103.013 29.0548 103.289 28.6493C103.565 28.2438 103.718 27.7446 103.718 27.2143V8.99688C103.718 8.65374 103.626 8.3418 103.473 8.06105C103.289 7.7803 103.043 7.62433 102.675 7.62433L105.313 7.25V27.2143Z" fill="#474747"/>
</svg>
