<svg width="20" height="22" viewBox="0 0 20 22" fill="none" xmlns="http://www.w3.org/2000/svg">
<path fill-rule="evenodd" clip-rule="evenodd" d="M18.5281 6.62386L17.9057 5.54377C17.3791 4.62985 16.2121 4.31456 15.297 4.83896V4.83896C14.8613 5.09559 14.3415 5.1684 13.8521 5.04133C13.3628 4.91427 12.944 4.59776 12.6883 4.16162C12.5237 3.88439 12.4353 3.56864 12.432 3.24628V3.24628C12.4468 2.72947 12.2518 2.22865 11.8915 1.85791C11.5311 1.48718 11.036 1.27811 10.5189 1.27832H9.26494C8.7584 1.27831 8.27275 1.48016 7.91544 1.83919C7.55812 2.19822 7.35861 2.68484 7.36105 3.19136V3.19136C7.34603 4.23717 6.49392 5.07706 5.448 5.07695C5.12565 5.0736 4.80989 4.98519 4.53267 4.82065V4.82065C3.6175 4.29626 2.45055 4.61154 1.92397 5.52546L1.25578 6.62386C0.729846 7.53664 1.04084 8.70285 1.95143 9.23255V9.23255C2.54334 9.57428 2.90797 10.2058 2.90797 10.8893C2.90797 11.5728 2.54334 12.2043 1.95143 12.5461V12.5461C1.04199 13.0722 0.730663 14.2356 1.25578 15.1456V15.1456L1.88736 16.2348C2.13408 16.68 2.54804 17.0085 3.03763 17.1477C3.52722 17.2868 4.05208 17.2251 4.49606 16.9763V16.9763C4.93252 16.7216 5.45262 16.6518 5.94078 16.7824C6.42893 16.9131 6.84467 17.2333 7.0956 17.6719C7.26013 17.9491 7.34854 18.2649 7.35189 18.5872V18.5872C7.35189 19.6438 8.20839 20.5003 9.26494 20.5003H10.5189C11.5719 20.5003 12.4269 19.6494 12.432 18.5964V18.5964C12.4295 18.0883 12.6303 17.6003 12.9896 17.241C13.3489 16.8817 13.8369 16.6809 14.345 16.6834C14.6666 16.692 14.9811 16.78 15.2604 16.9396V16.9396C16.1731 17.4656 17.3394 17.1546 17.8691 16.244V16.244L18.5281 15.1456C18.7832 14.7077 18.8532 14.1863 18.7226 13.6966C18.5921 13.207 18.2717 12.7896 17.8324 12.5369V12.5369C17.3932 12.2842 17.0728 11.8668 16.9422 11.3772C16.8117 10.8875 16.8817 10.3661 17.1368 9.92821C17.3027 9.63858 17.5428 9.39844 17.8324 9.23255V9.23255C18.7376 8.70314 19.0478 7.54374 18.5281 6.63301V6.63301V6.62386Z" stroke="#808191" stroke-width="1.5" stroke-linecap="round" stroke-linejoin="round"/>
<circle cx="9.89592" cy="10.8891" r="2.63616" stroke="#808191" stroke-width="1.5" stroke-linecap="round" stroke-linejoin="round"/>
</svg>
